<svg width="141" height="84" viewBox="0 0 141 84" fill="none" xmlns="http://www.w3.org/2000/svg">
<rect y="68.2684" width="140.033" height="1.21888" fill="#E62154"/>
<rect y="25.5132" width="140.033" height="1.21888" fill="#E62154"/>
<path d="M28.6343 8V7.32324L29.333 7.19141V2.41455L28.6343 2.28271V1.60156H31.5918C32.3125 1.60156 32.8721 1.76562 33.2705 2.09375C33.6689 2.41895 33.8682 2.87305 33.8682 3.45605C33.8682 3.85742 33.7656 4.20459 33.5605 4.49756C33.3584 4.7876 33.0801 5.00293 32.7256 5.14355L33.6484 7.20898L34.1494 7.31445V8H32.7959L31.6885 5.32373L30.4404 5.33691V7.19141L31.1392 7.32324V8H28.6343ZM30.4404 4.47559H31.5435C31.9595 4.47559 32.2671 4.39209 32.4663 4.2251C32.6655 4.05518 32.7651 3.80908 32.7651 3.48682C32.7651 3.17334 32.667 2.92432 32.4707 2.73975C32.2773 2.55225 31.9844 2.4585 31.5918 2.4585H30.4404V4.47559ZM36.3555 8.09229C35.8721 8.09229 35.4956 7.96777 35.2261 7.71875C34.9565 7.46973 34.8218 7.12695 34.8218 6.69043C34.8218 6.24219 35.0034 5.87891 35.3667 5.60059C35.7329 5.32227 36.2573 5.18311 36.9399 5.18311H37.665V4.7832C37.665 4.53125 37.5889 4.33057 37.4365 4.18115C37.2871 4.03174 37.0688 3.95703 36.7817 3.95703C36.6177 3.95703 36.4727 3.97754 36.3467 4.01855C36.2207 4.05664 36.1079 4.1123 36.0083 4.18555L35.9116 4.82715H35.0942L35.0854 3.65381C35.3169 3.49854 35.5762 3.37695 35.8633 3.28906C36.1533 3.20117 36.4741 3.15723 36.8257 3.15723C37.4292 3.15723 37.9038 3.29932 38.2495 3.5835C38.5981 3.86768 38.7725 4.27197 38.7725 4.79639V6.89258C38.7725 6.95703 38.7725 7.02002 38.7725 7.08154C38.7754 7.14014 38.7798 7.2002 38.7856 7.26172L39.269 7.32324V8H37.8232C37.7939 7.89746 37.7661 7.79785 37.7397 7.70117C37.7163 7.60449 37.6987 7.50781 37.687 7.41113C37.5288 7.61035 37.3369 7.77441 37.1113 7.90332C36.8857 8.0293 36.6338 8.09229 36.3555 8.09229ZM36.606 7.23535C36.8315 7.23535 37.0396 7.18408 37.23 7.08154C37.4233 6.97607 37.5684 6.84424 37.665 6.68604V5.89062H36.9268C36.5957 5.89062 36.3452 5.96826 36.1753 6.12354C36.0083 6.27588 35.9248 6.45459 35.9248 6.65967C35.9248 7.04346 36.1519 7.23535 36.606 7.23535ZM39.748 9.82812V9.14697L40.3896 9.01514V4.05811L39.6909 3.92627V3.24512H41.3828L41.4531 3.80762C41.6025 3.59961 41.7812 3.43994 41.9893 3.32861C42.2002 3.21436 42.4492 3.15723 42.7363 3.15723C43.123 3.15723 43.4541 3.2627 43.7295 3.47363C44.0049 3.68457 44.2144 3.979 44.3579 4.35693C44.5044 4.73486 44.5776 5.17725 44.5776 5.68408V5.77637C44.5776 6.23926 44.5044 6.64502 44.3579 6.99365C44.2114 7.33936 44.0005 7.60889 43.7251 7.80225C43.4497 7.99561 43.1201 8.09229 42.7363 8.09229C42.2031 8.09229 41.7886 7.90479 41.4927 7.52979V9.01514L42.1694 9.14697V9.82812H39.748ZM42.4023 7.23975C42.7656 7.23975 43.0337 7.10645 43.2065 6.83984C43.3823 6.57031 43.4702 6.21582 43.4702 5.77637V5.68408C43.4702 5.19482 43.3809 4.79785 43.2021 4.49316C43.0264 4.18555 42.7568 4.03174 42.3936 4.03174C42.1885 4.03174 42.0098 4.07861 41.8574 4.17236C41.7051 4.26318 41.5835 4.39209 41.4927 4.55908V6.73877C41.6831 7.07275 41.9863 7.23975 42.4023 7.23975ZM45.105 8V7.32324L45.7642 7.19141V4.05811L45.0654 3.92627V3.24512H46.8716V7.19141L47.5264 7.32324V8H45.105ZM45.7202 2.16846V1.14453H46.8716V2.16846H45.7202ZM49.8774 8.09229C49.4937 8.09229 49.1655 7.99561 48.8931 7.80225C48.6206 7.60889 48.4111 7.33936 48.2646 6.99365C48.1211 6.64502 48.0493 6.23926 48.0493 5.77637V5.68408C48.0493 5.18018 48.1211 4.73926 48.2646 4.36133C48.4111 3.98047 48.6206 3.68457 48.8931 3.47363C49.1655 3.2627 49.4922 3.15723 49.873 3.15723C50.1455 3.15723 50.3828 3.20996 50.585 3.31543C50.79 3.41797 50.9658 3.56592 51.1123 3.75928V1.95752L50.4136 1.82568V1.14453H52.2197V7.19141L52.8789 7.32324V8H51.2617L51.1738 7.42432C50.8662 7.86963 50.4341 8.09229 49.8774 8.09229ZM50.1895 7.21777C50.4004 7.21777 50.582 7.1709 50.7344 7.07715C50.8867 6.9834 51.0127 6.8501 51.1123 6.67725V4.58105C51.0156 4.4082 50.8896 4.27344 50.7344 4.17676C50.582 4.08008 50.4033 4.03174 50.1982 4.03174C49.8379 4.03174 49.5742 4.18408 49.4072 4.48877C49.2402 4.79346 49.1567 5.19189 49.1567 5.68408V5.77637C49.1567 6.21582 49.2373 6.56592 49.3984 6.82666C49.5625 7.0874 49.8262 7.21777 50.1895 7.21777ZM55.5815 8V7.32324L56.2803 7.19141V2.41455L55.5815 2.28271V1.60156H58.583C59.0576 1.60156 59.4648 1.68506 59.8047 1.85205C60.1475 2.01904 60.4097 2.25195 60.5913 2.55078C60.7759 2.84961 60.8682 3.19678 60.8682 3.59229C60.8682 4.18994 60.6646 4.67041 60.2573 5.03369C59.853 5.39404 59.2949 5.57422 58.583 5.57422H57.3877V7.19141L58.0864 7.32324V8H55.5815ZM57.3877 4.71729H58.583C58.9727 4.71729 59.2656 4.61182 59.4619 4.40088C59.6611 4.18994 59.7607 3.92334 59.7607 3.60107C59.7607 3.27295 59.6611 3.00049 59.4619 2.78369C59.2656 2.56689 58.9727 2.4585 58.583 2.4585H57.3877V4.71729ZM62.8809 8.09229C62.3975 8.09229 62.021 7.96777 61.7515 7.71875C61.4819 7.46973 61.3472 7.12695 61.3472 6.69043C61.3472 6.24219 61.5288 5.87891 61.8921 5.60059C62.2583 5.32227 62.7827 5.18311 63.4653 5.18311H64.1904V4.7832C64.1904 4.53125 64.1143 4.33057 63.9619 4.18115C63.8125 4.03174 63.5942 3.95703 63.3071 3.95703C63.1431 3.95703 62.998 3.97754 62.8721 4.01855C62.7461 4.05664 62.6333 4.1123 62.5337 4.18555L62.437 4.82715H61.6196L61.6108 3.65381C61.8423 3.49854 62.1016 3.37695 62.3887 3.28906C62.6787 3.20117 62.9995 3.15723 63.3511 3.15723C63.9546 3.15723 64.4292 3.29932 64.7749 3.5835C65.1235 3.86768 65.2979 4.27197 65.2979 4.79639V6.89258C65.2979 6.95703 65.2979 7.02002 65.2979 7.08154C65.3008 7.14014 65.3052 7.2002 65.311 7.26172L65.7944 7.32324V8H64.3486C64.3193 7.89746 64.2915 7.79785 64.2651 7.70117C64.2417 7.60449 64.2241 7.50781 64.2124 7.41113C64.0542 7.61035 63.8623 7.77441 63.6367 7.90332C63.4111 8.0293 63.1592 8.09229 62.8809 8.09229ZM63.1313 7.23535C63.3569 7.23535 63.5649 7.18408 63.7554 7.08154C63.9487 6.97607 64.0938 6.84424 64.1904 6.68604V5.89062H63.4521C63.1211 5.89062 62.8706 5.96826 62.7007 6.12354C62.5337 6.27588 62.4502 6.45459 62.4502 6.65967C62.4502 7.04346 62.6772 7.23535 63.1313 7.23535ZM66.4009 8V7.32324L67.0557 7.19141V4.05811L66.3613 3.92627V3.24512H68.0752L68.1323 3.84277L68.1411 3.93945C68.396 3.41797 68.7651 3.15723 69.2485 3.15723C69.4302 3.15723 69.5928 3.18066 69.7363 3.22754L69.6089 4.25146L68.9893 4.21631C68.7871 4.20459 68.6201 4.24414 68.4883 4.33496C68.3564 4.42578 68.248 4.55176 68.1631 4.71289V7.19141L68.8223 7.32324V8H66.4009ZM72.1006 8.0835C71.6963 8.0835 71.3813 7.9707 71.1558 7.74512C70.9302 7.5166 70.8174 7.15332 70.8174 6.65527V4.03613H70.123V3.24512H70.8174V2.08936H71.9204V3.24512H72.8608V4.03613H71.9204V6.65527C71.9204 6.85742 71.9614 7.00391 72.0435 7.09473C72.1284 7.18555 72.2427 7.23096 72.3862 7.23096C72.4683 7.23096 72.5591 7.2251 72.6587 7.21338C72.7612 7.19873 72.8447 7.18408 72.9092 7.16943L73.019 7.94727C72.8931 7.98535 72.7466 8.01758 72.5796 8.04395C72.4126 8.07031 72.2529 8.0835 72.1006 8.0835ZM73.564 8V7.32324L74.2231 7.19141V4.05811L73.5244 3.92627V3.24512H75.3306V7.19141L75.9854 7.32324V8H73.564ZM74.1792 2.16846V1.14453H75.3306V2.16846H74.1792ZM78.688 8.09229C78.2427 8.09229 77.856 7.99121 77.5278 7.78906C77.2026 7.58398 76.9507 7.30273 76.772 6.94531C76.5962 6.58496 76.5083 6.17041 76.5083 5.70166V5.54785C76.5083 5.08789 76.5962 4.67773 76.772 4.31738C76.9478 3.95703 77.1982 3.67432 77.5234 3.46924C77.8516 3.26123 78.2383 3.15723 78.6836 3.15723C79.0908 3.15723 79.4453 3.22314 79.7471 3.35498C80.0488 3.48389 80.2964 3.64502 80.4897 3.83838L80.4941 5.1084H79.6504L79.4878 4.26904C79.4058 4.18408 79.3018 4.1167 79.1758 4.06689C79.0498 4.01416 78.9121 3.98779 78.7627 3.98779C78.3965 3.98779 78.1138 4.13281 77.9146 4.42285C77.7153 4.70996 77.6157 5.08496 77.6157 5.54785V5.70166C77.6157 6.20557 77.7153 6.58789 77.9146 6.84863C78.1167 7.10938 78.376 7.23975 78.6924 7.23975C78.9443 7.23975 79.1509 7.1709 79.312 7.0332C79.4731 6.89551 79.5786 6.70508 79.6284 6.46191H80.5864L80.5996 6.48828C80.5469 6.9541 80.3667 7.33789 80.0591 7.63965C79.7544 7.94141 79.2974 8.09229 78.688 8.09229ZM81.1841 8V7.32324L81.8433 7.19141V4.05811L81.1445 3.92627V3.24512H82.9507V7.19141L83.6055 7.32324V8H81.1841ZM81.7993 2.16846V1.14453H82.9507V2.16846H81.7993ZM84.0361 9.82812V9.14697L84.6777 9.01514V4.05811L83.979 3.92627V3.24512H85.6709L85.7412 3.80762C85.8906 3.59961 86.0693 3.43994 86.2773 3.32861C86.4883 3.21436 86.7373 3.15723 87.0244 3.15723C87.4111 3.15723 87.7422 3.2627 88.0176 3.47363C88.293 3.68457 88.5024 3.979 88.646 4.35693C88.7925 4.73486 88.8657 5.17725 88.8657 5.68408V5.77637C88.8657 6.23926 88.7925 6.64502 88.646 6.99365C88.4995 7.33936 88.2886 7.60889 88.0132 7.80225C87.7378 7.99561 87.4082 8.09229 87.0244 8.09229C86.4912 8.09229 86.0767 7.90479 85.7808 7.52979V9.01514L86.4575 9.14697V9.82812H84.0361ZM86.6904 7.23975C87.0537 7.23975 87.3218 7.10645 87.4946 6.83984C87.6704 6.57031 87.7583 6.21582 87.7583 5.77637V5.68408C87.7583 5.19482 87.6689 4.79785 87.4902 4.49316C87.3145 4.18555 87.0449 4.03174 86.6816 4.03174C86.4766 4.03174 86.2979 4.07861 86.1455 4.17236C85.9932 4.26318 85.8716 4.39209 85.7808 4.55908V6.73877C85.9712 7.07275 86.2744 7.23975 86.6904 7.23975ZM91.0498 8.09229C90.5664 8.09229 90.1899 7.96777 89.9204 7.71875C89.6509 7.46973 89.5161 7.12695 89.5161 6.69043C89.5161 6.24219 89.6978 5.87891 90.061 5.60059C90.4272 5.32227 90.9517 5.18311 91.6343 5.18311H92.3594V4.7832C92.3594 4.53125 92.2832 4.33057 92.1309 4.18115C91.9814 4.03174 91.7632 3.95703 91.4761 3.95703C91.312 3.95703 91.167 3.97754 91.041 4.01855C90.915 4.05664 90.8022 4.1123 90.7026 4.18555L90.606 4.82715H89.7886L89.7798 3.65381C90.0112 3.49854 90.2705 3.37695 90.5576 3.28906C90.8477 3.20117 91.1685 3.15723 91.52 3.15723C92.1235 3.15723 92.5981 3.29932 92.9438 3.5835C93.2925 3.86768 93.4668 4.27197 93.4668 4.79639V6.89258C93.4668 6.95703 93.4668 7.02002 93.4668 7.08154C93.4697 7.14014 93.4741 7.2002 93.48 7.26172L93.9634 7.32324V8H92.5176C92.4883 7.89746 92.4604 7.79785 92.4341 7.70117C92.4106 7.60449 92.3931 7.50781 92.3813 7.41113C92.2231 7.61035 92.0312 7.77441 91.8057 7.90332C91.5801 8.0293 91.3281 8.09229 91.0498 8.09229ZM91.3003 7.23535C91.5259 7.23535 91.7339 7.18408 91.9243 7.08154C92.1177 6.97607 92.2627 6.84424 92.3594 6.68604V5.89062H91.6211C91.29 5.89062 91.0396 5.96826 90.8696 6.12354C90.7026 6.27588 90.6191 6.45459 90.6191 6.65967C90.6191 7.04346 90.8462 7.23535 91.3003 7.23535ZM96.209 8.0835C95.8047 8.0835 95.4897 7.9707 95.2642 7.74512C95.0386 7.5166 94.9258 7.15332 94.9258 6.65527V4.03613H94.2314V3.24512H94.9258V2.08936H96.0288V3.24512H96.9692V4.03613H96.0288V6.65527C96.0288 6.85742 96.0698 7.00391 96.1519 7.09473C96.2368 7.18555 96.3511 7.23096 96.4946 7.23096C96.5767 7.23096 96.6675 7.2251 96.7671 7.21338C96.8696 7.19873 96.9531 7.18408 97.0176 7.16943L97.1274 7.94727C97.0015 7.98535 96.855 8.01758 96.688 8.04395C96.521 8.07031 96.3613 8.0835 96.209 8.0835ZM99.7554 8.09229C99.2983 8.09229 98.9058 7.98975 98.5776 7.78467C98.2495 7.57666 97.9976 7.29102 97.8218 6.92773C97.646 6.56445 97.5581 6.14551 97.5581 5.6709V5.57861C97.5581 5.10693 97.646 4.68945 97.8218 4.32617C97.9976 3.96289 98.2495 3.67725 98.5776 3.46924C98.9058 3.26123 99.2954 3.15723 99.7466 3.15723C100.204 3.15723 100.596 3.26123 100.924 3.46924C101.252 3.67432 101.504 3.95996 101.68 4.32617C101.856 4.68945 101.944 5.10693 101.944 5.57861V5.6709C101.944 6.14844 101.856 6.56885 101.68 6.93213C101.504 7.29541 101.252 7.57959 100.924 7.78467C100.599 7.98975 100.209 8.09229 99.7554 8.09229ZM99.7554 7.23975C100.122 7.23975 100.394 7.09473 100.573 6.80469C100.751 6.51172 100.841 6.13379 100.841 5.6709V5.57861C100.841 5.12451 100.75 4.75098 100.568 4.45801C100.39 4.16211 100.116 4.01416 99.7466 4.01416C99.3804 4.01416 99.1079 4.16211 98.9292 4.45801C98.7534 4.75098 98.6655 5.12451 98.6655 5.57861V5.6709C98.6655 6.13379 98.7534 6.51172 98.9292 6.80469C99.1079 7.09473 99.3833 7.23975 99.7554 7.23975ZM102.612 8V7.32324L103.267 7.19141V4.05811L102.572 3.92627V3.24512H104.286L104.343 3.84277L104.352 3.93945C104.607 3.41797 104.976 3.15723 105.459 3.15723C105.641 3.15723 105.804 3.18066 105.947 3.22754L105.82 4.25146L105.2 4.21631C104.998 4.20459 104.831 4.24414 104.699 4.33496C104.567 4.42578 104.459 4.55176 104.374 4.71289V7.19141L105.033 7.32324V8H102.612ZM107.674 9.92041C107.583 9.92041 107.478 9.91162 107.358 9.89404C107.241 9.87646 107.138 9.85449 107.05 9.82812L107.173 8.99756C107.223 9.00635 107.286 9.01367 107.362 9.01953C107.438 9.02539 107.499 9.02832 107.542 9.02832C107.727 9.02832 107.882 8.97119 108.008 8.85693C108.134 8.74268 108.237 8.58008 108.316 8.36914L108.461 7.99121L106.835 4.00537L106.281 3.92627V3.24512H108.584V3.92627L108.004 4.01416L108.826 6.229L108.971 6.64209H108.997L109.973 4.00977L109.388 3.92627V3.24512H111.572V3.92627L111.058 4.00098L109.217 8.71631C109.088 9.05322 108.905 9.3374 108.667 9.56885C108.43 9.80322 108.099 9.92041 107.674 9.92041ZM22.0996 20V19.3232L22.7983 19.1914V14.4146L22.0996 14.2827V13.6016H26.9731V15.2495H26.1118L26.0371 14.4541H23.9058V16.2646H26.1514V17.1216H23.9058V19.1562H26.1558L26.2305 18.3433H27.083V20H22.0996ZM27.8257 20V19.3232L28.4893 19.1914V16.0581L27.7905 15.9263V15.2451H29.5044L29.5571 15.8691C29.7095 15.6436 29.9028 15.4692 30.1372 15.3462C30.3716 15.2202 30.6426 15.1572 30.9502 15.1572C31.2607 15.1572 31.5259 15.2275 31.7456 15.3682C31.9683 15.5059 32.1367 15.7153 32.251 15.9966C32.3975 15.7358 32.5894 15.5308 32.8267 15.3813C33.0669 15.2319 33.3481 15.1572 33.6704 15.1572C34.145 15.1572 34.52 15.3198 34.7954 15.645C35.0708 15.9702 35.2085 16.4624 35.2085 17.1216V19.1914L35.8721 19.3232V20H33.4771V19.3232L34.1011 19.1914V17.1128C34.1011 16.7144 34.0337 16.4346 33.8989 16.2734C33.7642 16.1123 33.5664 16.0317 33.3057 16.0317C33.0625 16.0317 32.8618 16.1094 32.7036 16.2646C32.5483 16.417 32.4473 16.6147 32.4004 16.8579V19.1914L33.0024 19.3232V20H30.6953V19.3232L31.2974 19.1914V17.1128C31.2974 16.729 31.2285 16.4536 31.0908 16.2866C30.9531 16.1167 30.7539 16.0317 30.4932 16.0317C30.2764 16.0317 30.0933 16.0757 29.9438 16.1636C29.7974 16.2515 29.6802 16.376 29.5923 16.5371V19.1914L30.2163 19.3232V20H27.8257ZM37.9595 20.0923C37.4761 20.0923 37.0996 19.9678 36.8301 19.7188C36.5605 19.4697 36.4258 19.127 36.4258 18.6904C36.4258 18.2422 36.6074 17.8789 36.9707 17.6006C37.3369 17.3223 37.8613 17.1831 38.5439 17.1831H39.269V16.7832C39.269 16.5312 39.1929 16.3306 39.0405 16.1812C38.8911 16.0317 38.6729 15.957 38.3857 15.957C38.2217 15.957 38.0767 15.9775 37.9507 16.0186C37.8247 16.0566 37.7119 16.1123 37.6123 16.1855L37.5156 16.8271H36.6982L36.6895 15.6538C36.9209 15.4985 37.1802 15.377 37.4673 15.2891C37.7573 15.2012 38.0781 15.1572 38.4297 15.1572C39.0332 15.1572 39.5078 15.2993 39.8535 15.5835C40.2021 15.8677 40.3765 16.272 40.3765 16.7964V18.8926C40.3765 18.957 40.3765 19.02 40.3765 19.0815C40.3794 19.1401 40.3838 19.2002 40.3896 19.2617L40.873 19.3232V20H39.4272C39.3979 19.8975 39.3701 19.7979 39.3438 19.7012C39.3203 19.6045 39.3027 19.5078 39.291 19.4111C39.1328 19.6104 38.9409 19.7744 38.7153 19.9033C38.4897 20.0293 38.2378 20.0923 37.9595 20.0923ZM38.21 19.2354C38.4355 19.2354 38.6436 19.1841 38.834 19.0815C39.0273 18.9761 39.1724 18.8442 39.269 18.686V17.8906H38.5308C38.1997 17.8906 37.9492 17.9683 37.7793 18.1235C37.6123 18.2759 37.5288 18.4546 37.5288 18.6597C37.5288 19.0435 37.7559 19.2354 38.21 19.2354ZM43.624 20.0923C43.1787 20.0923 42.792 19.9912 42.4639 19.7891C42.1387 19.584 41.8867 19.3027 41.708 18.9453C41.5322 18.585 41.4443 18.1704 41.4443 17.7017V17.5479C41.4443 17.0879 41.5322 16.6777 41.708 16.3174C41.8838 15.957 42.1343 15.6743 42.4595 15.4692C42.7876 15.2612 43.1743 15.1572 43.6196 15.1572C44.0269 15.1572 44.3813 15.2231 44.6831 15.355C44.9849 15.4839 45.2324 15.645 45.4258 15.8384L45.4302 17.1084H44.5864L44.4238 16.269C44.3418 16.1841 44.2378 16.1167 44.1118 16.0669C43.9858 16.0142 43.8481 15.9878 43.6987 15.9878C43.3325 15.9878 43.0498 16.1328 42.8506 16.4229C42.6514 16.71 42.5518 17.085 42.5518 17.5479V17.7017C42.5518 18.2056 42.6514 18.5879 42.8506 18.8486C43.0527 19.1094 43.312 19.2397 43.6284 19.2397C43.8804 19.2397 44.0869 19.1709 44.248 19.0332C44.4092 18.8955 44.5146 18.7051 44.5645 18.4619H45.5225L45.5356 18.4883C45.4829 18.9541 45.3027 19.3379 44.9951 19.6396C44.6904 19.9414 44.2334 20.0923 43.624 20.0923ZM46.1201 20V19.3232L46.7793 19.1914V16.0581L46.0806 15.9263V15.2451H47.8867V19.1914L48.5415 19.3232V20H46.1201ZM46.7354 14.1685V13.1445H47.8867V14.1685H46.7354ZM48.9722 21.8281V21.147L49.6138 21.0151V16.0581L48.915 15.9263V15.2451H50.6069L50.6772 15.8076C50.8267 15.5996 51.0054 15.4399 51.2134 15.3286C51.4243 15.2144 51.6733 15.1572 51.9604 15.1572C52.3472 15.1572 52.6782 15.2627 52.9536 15.4736C53.229 15.6846 53.4385 15.979 53.582 16.3569C53.7285 16.7349 53.8018 17.1772 53.8018 17.6841V17.7764C53.8018 18.2393 53.7285 18.645 53.582 18.9937C53.4355 19.3394 53.2246 19.6089 52.9492 19.8022C52.6738 19.9956 52.3442 20.0923 51.9604 20.0923C51.4272 20.0923 51.0127 19.9048 50.7168 19.5298V21.0151L51.3936 21.147V21.8281H48.9722ZM51.6265 19.2397C51.9897 19.2397 52.2578 19.1064 52.4307 18.8398C52.6064 18.5703 52.6943 18.2158 52.6943 17.7764V17.6841C52.6943 17.1948 52.605 16.7979 52.4263 16.4932C52.2505 16.1855 51.981 16.0317 51.6177 16.0317C51.4126 16.0317 51.2339 16.0786 51.0815 16.1724C50.9292 16.2632 50.8076 16.3921 50.7168 16.5591V18.7388C50.9072 19.0728 51.2104 19.2397 51.6265 19.2397ZM55.9858 20.0923C55.5024 20.0923 55.126 19.9678 54.8564 19.7188C54.5869 19.4697 54.4521 19.127 54.4521 18.6904C54.4521 18.2422 54.6338 17.8789 54.9971 17.6006C55.3633 17.3223 55.8877 17.1831 56.5703 17.1831H57.2954V16.7832C57.2954 16.5312 57.2192 16.3306 57.0669 16.1812C56.9175 16.0317 56.6992 15.957 56.4121 15.957C56.248 15.957 56.103 15.9775 55.9771 16.0186C55.8511 16.0566 55.7383 16.1123 55.6387 16.1855L55.542 16.8271H54.7246L54.7158 15.6538C54.9473 15.4985 55.2065 15.377 55.4937 15.2891C55.7837 15.2012 56.1045 15.1572 56.4561 15.1572C57.0596 15.1572 57.5342 15.2993 57.8799 15.5835C58.2285 15.8677 58.4028 16.272 58.4028 16.7964V18.8926C58.4028 18.957 58.4028 19.02 58.4028 19.0815C58.4058 19.1401 58.4102 19.2002 58.416 19.2617L58.8994 19.3232V20H57.4536C57.4243 19.8975 57.3965 19.7979 57.3701 19.7012C57.3467 19.6045 57.3291 19.5078 57.3174 19.4111C57.1592 19.6104 56.9673 19.7744 56.7417 19.9033C56.5161 20.0293 56.2642 20.0923 55.9858 20.0923ZM56.2363 19.2354C56.4619 19.2354 56.6699 19.1841 56.8604 19.0815C57.0537 18.9761 57.1987 18.8442 57.2954 18.686V17.8906H56.5571C56.2261 17.8906 55.9756 17.9683 55.8057 18.1235C55.6387 18.2759 55.5552 18.4546 55.5552 18.6597C55.5552 19.0435 55.7822 19.2354 56.2363 19.2354ZM61.145 20.0835C60.7407 20.0835 60.4258 19.9707 60.2002 19.7451C59.9746 19.5166 59.8618 19.1533 59.8618 18.6553V16.0361H59.1675V15.2451H59.8618V14.0894H60.9648V15.2451H61.9053V16.0361H60.9648V18.6553C60.9648 18.8574 61.0059 19.0039 61.0879 19.0947C61.1729 19.1855 61.2871 19.231 61.4307 19.231C61.5127 19.231 61.6035 19.2251 61.7031 19.2134C61.8057 19.1987 61.8892 19.1841 61.9536 19.1694L62.0635 19.9473C61.9375 19.9854 61.791 20.0176 61.624 20.0439C61.457 20.0703 61.2974 20.0835 61.145 20.0835ZM64.6914 20.0923C64.2344 20.0923 63.8418 19.9897 63.5137 19.7847C63.1855 19.5767 62.9336 19.291 62.7578 18.9277C62.582 18.5645 62.4941 18.1455 62.4941 17.6709V17.5786C62.4941 17.1069 62.582 16.6895 62.7578 16.3262C62.9336 15.9629 63.1855 15.6772 63.5137 15.4692C63.8418 15.2612 64.2314 15.1572 64.6826 15.1572C65.1396 15.1572 65.5322 15.2612 65.8604 15.4692C66.1885 15.6743 66.4404 15.96 66.6162 16.3262C66.792 16.6895 66.8799 17.1069 66.8799 17.5786V17.6709C66.8799 18.1484 66.792 18.5688 66.6162 18.9321C66.4404 19.2954 66.1885 19.5796 65.8604 19.7847C65.5352 19.9897 65.1455 20.0923 64.6914 20.0923ZM64.6914 19.2397C65.0576 19.2397 65.3301 19.0947 65.5088 18.8047C65.6875 18.5117 65.7769 18.1338 65.7769 17.6709V17.5786C65.7769 17.1245 65.686 16.751 65.5044 16.458C65.3257 16.1621 65.0518 16.0142 64.6826 16.0142C64.3164 16.0142 64.0439 16.1621 63.8652 16.458C63.6895 16.751 63.6016 17.1245 63.6016 17.5786V17.6709C63.6016 18.1338 63.6895 18.5117 63.8652 18.8047C64.0439 19.0947 64.3193 19.2397 64.6914 19.2397ZM67.5479 20V19.3232L68.2026 19.1914V16.0581L67.5083 15.9263V15.2451H69.2222L69.2793 15.8428L69.2881 15.9395C69.543 15.418 69.9121 15.1572 70.3955 15.1572C70.5771 15.1572 70.7397 15.1807 70.8833 15.2275L70.7559 16.2515L70.1362 16.2163C69.9341 16.2046 69.7671 16.2441 69.6353 16.335C69.5034 16.4258 69.395 16.5518 69.3101 16.7129V19.1914L69.9692 19.3232V20H67.5479ZM72.6104 21.9204C72.5195 21.9204 72.4141 21.9116 72.2939 21.894C72.1768 21.8765 72.0742 21.8545 71.9863 21.8281L72.1094 20.9976C72.1592 21.0063 72.2222 21.0137 72.2983 21.0195C72.3745 21.0254 72.4346 21.0283 72.4785 21.0283C72.6631 21.0283 72.8184 20.9712 72.9443 20.8569C73.0703 20.7427 73.1729 20.5801 73.252 20.3691L73.397 19.9912L71.771 16.0054L71.2173 15.9263V15.2451H73.52V15.9263L72.9399 16.0142L73.7617 18.229L73.9067 18.6421H73.9331L74.9087 16.0098L74.3242 15.9263V15.2451H76.5083V15.9263L75.9941 16.001L74.1528 20.7163C74.0239 21.0532 73.8408 21.3374 73.6035 21.5688C73.3662 21.8032 73.0352 21.9204 72.6104 21.9204ZM79.1055 20V19.3232L79.8042 19.1914V14.4146L79.1055 14.2827V13.6016H82.063C82.7837 13.6016 83.3433 13.7656 83.7417 14.0938C84.1401 14.4189 84.3394 14.873 84.3394 15.4561C84.3394 15.8574 84.2368 16.2046 84.0317 16.4976C83.8296 16.7876 83.5513 17.0029 83.1968 17.1436L84.1196 19.209L84.6206 19.3145V20H83.2671L82.1597 17.3237L80.9116 17.3369V19.1914L81.6104 19.3232V20H79.1055ZM80.9116 16.4756H82.0146C82.4307 16.4756 82.7383 16.3921 82.9375 16.2251C83.1367 16.0552 83.2363 15.8091 83.2363 15.4868C83.2363 15.1733 83.1382 14.9243 82.9419 14.7397C82.7485 14.5522 82.4556 14.4585 82.063 14.4585H80.9116V16.4756ZM87.4858 20.0923C87.0347 20.0923 86.6436 19.9927 86.3125 19.7935C85.9814 19.5913 85.7236 19.313 85.5391 18.9585C85.3574 18.604 85.2666 18.1982 85.2666 17.7412V17.5566C85.2666 17.0938 85.356 16.6821 85.5347 16.3218C85.7163 15.9585 85.9639 15.6743 86.2773 15.4692C86.5938 15.2612 86.9556 15.1572 87.3628 15.1572C88.0044 15.1572 88.4922 15.3477 88.8262 15.7285C89.1631 16.1094 89.3315 16.6323 89.3315 17.2974V17.9302H86.4136L86.4048 17.9521C86.4224 18.3271 86.5308 18.6362 86.73 18.8794C86.9292 19.1196 87.2134 19.2397 87.5825 19.2397C87.8403 19.2397 88.0747 19.2046 88.2856 19.1343C88.4966 19.064 88.6929 18.9644 88.8745 18.8354L89.2173 19.5298C89.0298 19.6909 88.791 19.8257 88.501 19.9341C88.2139 20.0396 87.8755 20.0923 87.4858 20.0923ZM86.4312 17.1523H88.2725V17.0381C88.2725 16.7275 88.1992 16.4756 88.0527 16.2822C87.9092 16.0889 87.6836 15.9922 87.376 15.9922C87.1064 15.9922 86.8882 16.1006 86.7212 16.3174C86.5571 16.5342 86.4561 16.8052 86.418 17.1304L86.4312 17.1523ZM91.9595 20.0923C91.6196 20.0923 91.3018 20.0601 91.0059 19.9956C90.7129 19.9282 90.4185 19.8301 90.1226 19.7012L90.1094 18.4443H90.9048L91.0718 19.1299C91.2007 19.1885 91.3311 19.2324 91.4629 19.2617C91.5947 19.291 91.7427 19.3057 91.9067 19.3057C92.2231 19.3057 92.4458 19.25 92.5747 19.1387C92.7065 19.0273 92.7725 18.8896 92.7725 18.7256C92.7725 18.5703 92.7036 18.4355 92.5659 18.3213C92.4312 18.207 92.1719 18.1089 91.7881 18.0269C91.2168 17.9038 90.7979 17.7251 90.5312 17.4907C90.2646 17.2534 90.1313 16.9458 90.1313 16.5679C90.1313 16.3101 90.2002 16.0742 90.3379 15.8604C90.4785 15.6465 90.6836 15.4766 90.9531 15.3506C91.2256 15.2246 91.5596 15.1616 91.9551 15.1616C92.3154 15.1616 92.6348 15.1997 92.9131 15.2759C93.1943 15.3491 93.4331 15.4473 93.6294 15.5703L93.6602 16.7788H92.8691L92.7329 16.1504C92.5425 16.0156 92.2993 15.9482 92.0034 15.9482C91.7603 15.9482 91.5684 16.0024 91.4277 16.1108C91.2871 16.2163 91.2168 16.3496 91.2168 16.5107C91.2168 16.6514 91.2725 16.7729 91.3838 16.8755C91.4951 16.978 91.7412 17.0718 92.1221 17.1567C92.7402 17.3003 93.1826 17.4878 93.4492 17.7192C93.7158 17.9507 93.8491 18.2568 93.8491 18.6377C93.8491 19.0625 93.6938 19.4111 93.3833 19.6836C93.0728 19.9561 92.5981 20.0923 91.9595 20.0923ZM96.7231 20.0923C96.272 20.0923 95.8809 19.9927 95.5498 19.7935C95.2188 19.5913 94.9609 19.313 94.7764 18.9585C94.5947 18.604 94.5039 18.1982 94.5039 17.7412V17.5566C94.5039 17.0938 94.5933 16.6821 94.772 16.3218C94.9536 15.9585 95.2012 15.6743 95.5146 15.4692C95.8311 15.2612 96.1929 15.1572 96.6001 15.1572C97.2417 15.1572 97.7295 15.3477 98.0635 15.7285C98.4004 16.1094 98.5688 16.6323 98.5688 17.2974V17.9302H95.6509L95.6421 17.9521C95.6597 18.3271 95.7681 18.6362 95.9673 18.8794C96.1665 19.1196 96.4507 19.2397 96.8198 19.2397C97.0776 19.2397 97.312 19.2046 97.5229 19.1343C97.7339 19.064 97.9302 18.9644 98.1118 18.8354L98.4546 19.5298C98.2671 19.6909 98.0283 19.8257 97.7383 19.9341C97.4512 20.0396 97.1128 20.0923 96.7231 20.0923ZM95.6685 17.1523H97.5098V17.0381C97.5098 16.7275 97.4365 16.4756 97.29 16.2822C97.1465 16.0889 96.9209 15.9922 96.6133 15.9922C96.3438 15.9922 96.1255 16.1006 95.9585 16.3174C95.7944 16.5342 95.6934 16.8052 95.6553 17.1304L95.6685 17.1523ZM100.792 20.0923C100.309 20.0923 99.9326 19.9678 99.6631 19.7188C99.3936 19.4697 99.2588 19.127 99.2588 18.6904C99.2588 18.2422 99.4404 17.8789 99.8037 17.6006C100.17 17.3223 100.694 17.1831 101.377 17.1831H102.102V16.7832C102.102 16.5312 102.026 16.3306 101.874 16.1812C101.724 16.0317 101.506 15.957 101.219 15.957C101.055 15.957 100.91 15.9775 100.784 16.0186C100.658 16.0566 100.545 16.1123 100.445 16.1855L100.349 16.8271H99.5312L99.5225 15.6538C99.7539 15.4985 100.013 15.377 100.3 15.2891C100.59 15.2012 100.911 15.1572 101.263 15.1572C101.866 15.1572 102.341 15.2993 102.687 15.5835C103.035 15.8677 103.209 16.272 103.209 16.7964V18.8926C103.209 18.957 103.209 19.02 103.209 19.0815C103.212 19.1401 103.217 19.2002 103.223 19.2617L103.706 19.3232V20H102.26C102.231 19.8975 102.203 19.7979 102.177 19.7012C102.153 19.6045 102.136 19.5078 102.124 19.4111C101.966 19.6104 101.774 19.7744 101.548 19.9033C101.323 20.0293 101.071 20.0923 100.792 20.0923ZM101.043 19.2354C101.269 19.2354 101.477 19.1841 101.667 19.0815C101.86 18.9761 102.005 18.8442 102.102 18.686V17.8906H101.364C101.033 17.8906 100.782 17.9683 100.612 18.1235C100.445 18.2759 100.362 18.4546 100.362 18.6597C100.362 19.0435 100.589 19.2354 101.043 19.2354ZM104.312 20V19.3232L104.967 19.1914V16.0581L104.273 15.9263V15.2451H105.987L106.044 15.8428L106.053 15.9395C106.308 15.418 106.677 15.1572 107.16 15.1572C107.342 15.1572 107.504 15.1807 107.648 15.2275L107.521 16.2515L106.901 16.2163C106.699 16.2046 106.532 16.2441 106.4 16.335C106.268 16.4258 106.16 16.5518 106.075 16.7129V19.1914L106.734 19.3232V20H104.312ZM110.21 20.0923C109.765 20.0923 109.378 19.9912 109.05 19.7891C108.725 19.584 108.473 19.3027 108.294 18.9453C108.118 18.585 108.03 18.1704 108.03 17.7017V17.5479C108.03 17.0879 108.118 16.6777 108.294 16.3174C108.47 15.957 108.72 15.6743 109.045 15.4692C109.374 15.2612 109.76 15.1572 110.206 15.1572C110.613 15.1572 110.967 15.2231 111.269 15.355C111.571 15.4839 111.818 15.645 112.012 15.8384L112.016 17.1084H111.172L111.01 16.269C110.928 16.1841 110.824 16.1167 110.698 16.0669C110.572 16.0142 110.434 15.9878 110.285 15.9878C109.918 15.9878 109.636 16.1328 109.437 16.4229C109.237 16.71 109.138 17.085 109.138 17.5479V17.7017C109.138 18.2056 109.237 18.5879 109.437 18.8486C109.639 19.1094 109.898 19.2397 110.214 19.2397C110.466 19.2397 110.673 19.1709 110.834 19.0332C110.995 18.8955 111.101 18.7051 111.15 18.4619H112.108L112.122 18.4883C112.069 18.9541 111.889 19.3379 111.581 19.6396C111.276 19.9414 110.819 20.0923 110.21 20.0923ZM112.653 20V19.3232L113.312 19.1914V13.9575L112.614 13.8257V13.1445H114.416V15.8604C114.574 15.6377 114.766 15.4648 114.991 15.3418C115.22 15.2188 115.478 15.1572 115.765 15.1572C116.254 15.1572 116.639 15.314 116.92 15.6274C117.202 15.938 117.342 16.4185 117.342 17.0688V19.1914L117.997 19.3232V20H115.611V19.3232L116.235 19.1914V17.0601C116.235 16.6968 116.162 16.4346 116.015 16.2734C115.869 16.1123 115.653 16.0317 115.369 16.0317C115.167 16.0317 114.984 16.0771 114.82 16.168C114.656 16.2559 114.521 16.3804 114.416 16.5415V19.1914L115.04 19.3232V20H112.653Z" fill="#7371FF"/>
<path d="M9.90479 81.0923C9.47119 81.0923 9.06543 81.0381 8.6875 80.9297C8.3125 80.8213 7.94775 80.6411 7.59326 80.3892V78.917H8.4502L8.59082 79.8662C8.74316 79.9805 8.93359 80.0713 9.16211 80.1387C9.39355 80.2061 9.64111 80.2397 9.90479 80.2397C10.2915 80.2397 10.5889 80.1577 10.7969 79.9937C11.0049 79.8296 11.1089 79.6099 11.1089 79.3345C11.1089 79.0796 11.0122 78.8672 10.8188 78.6973C10.6284 78.5244 10.29 78.3721 9.80371 78.2402C9.08594 78.0469 8.54541 77.7979 8.18213 77.4932C7.81885 77.1885 7.63721 76.7842 7.63721 76.2803C7.63721 75.9375 7.72949 75.6343 7.91406 75.3706C8.10156 75.1069 8.36084 74.8989 8.69189 74.7466C9.02295 74.5942 9.40527 74.5166 9.83887 74.5137C10.3135 74.5078 10.7324 74.5693 11.0957 74.6982C11.4619 74.8271 11.771 74.9956 12.0229 75.2036V76.5791H11.1836L11.0254 75.6826C10.9053 75.5977 10.7485 75.5259 10.5552 75.4673C10.3647 75.4058 10.1392 75.375 9.87842 75.375C9.54443 75.375 9.27197 75.4556 9.06104 75.6167C8.8501 75.7749 8.74463 75.9932 8.74463 76.2715C8.74463 76.5117 8.84277 76.7095 9.03906 76.8647C9.23828 77.02 9.59424 77.1709 10.1069 77.3174C10.7983 77.502 11.3228 77.7568 11.6802 78.082C12.0405 78.4043 12.2207 78.8188 12.2207 79.3257C12.2207 79.6831 12.124 79.9937 11.9307 80.2573C11.7402 80.521 11.4707 80.7261 11.1221 80.8726C10.7764 81.019 10.3706 81.0923 9.90479 81.0923ZM15.0508 81.0923C14.5938 81.0923 14.2012 80.9897 13.873 80.7847C13.5449 80.5767 13.293 80.291 13.1172 79.9277C12.9414 79.5645 12.8535 79.1455 12.8535 78.6709V78.5786C12.8535 78.1069 12.9414 77.6895 13.1172 77.3262C13.293 76.9629 13.5449 76.6772 13.873 76.4692C14.2012 76.2612 14.5908 76.1572 15.042 76.1572C15.499 76.1572 15.8916 76.2612 16.2197 76.4692C16.5479 76.6743 16.7998 76.96 16.9756 77.3262C17.1514 77.6895 17.2393 78.1069 17.2393 78.5786V78.6709C17.2393 79.1484 17.1514 79.5688 16.9756 79.9321C16.7998 80.2954 16.5479 80.5796 16.2197 80.7847C15.8945 80.9897 15.5049 81.0923 15.0508 81.0923ZM15.0508 80.2397C15.417 80.2397 15.6895 80.0947 15.8682 79.8047C16.0469 79.5117 16.1362 79.1338 16.1362 78.6709V78.5786C16.1362 78.1245 16.0454 77.751 15.8638 77.458C15.6851 77.1621 15.4111 77.0142 15.042 77.0142C14.6758 77.0142 14.4033 77.1621 14.2246 77.458C14.0488 77.751 13.9609 78.1245 13.9609 78.5786V78.6709C13.9609 79.1338 14.0488 79.5117 14.2246 79.8047C14.4033 80.0947 14.6787 80.2397 15.0508 80.2397ZM20.1484 81.0923C19.7031 81.0923 19.3164 80.9912 18.9883 80.7891C18.6631 80.584 18.4111 80.3027 18.2324 79.9453C18.0566 79.585 17.9688 79.1704 17.9688 78.7017V78.5479C17.9688 78.0879 18.0566 77.6777 18.2324 77.3174C18.4082 76.957 18.6587 76.6743 18.9839 76.4692C19.312 76.2612 19.6987 76.1572 20.144 76.1572C20.5513 76.1572 20.9058 76.2231 21.2075 76.355C21.5093 76.4839 21.7568 76.645 21.9502 76.8384L21.9546 78.1084H21.1108L20.9482 77.269C20.8662 77.1841 20.7622 77.1167 20.6362 77.0669C20.5103 77.0142 20.3726 76.9878 20.2231 76.9878C19.8569 76.9878 19.5742 77.1328 19.375 77.4229C19.1758 77.71 19.0762 78.085 19.0762 78.5479V78.7017C19.0762 79.2056 19.1758 79.5879 19.375 79.8486C19.5771 80.1094 19.8364 80.2397 20.1528 80.2397C20.4048 80.2397 20.6113 80.1709 20.7725 80.0332C20.9336 79.8955 21.0391 79.7051 21.0889 79.4619H22.0469L22.0601 79.4883C22.0073 79.9541 21.8271 80.3379 21.5195 80.6396C21.2148 80.9414 20.7578 81.0923 20.1484 81.0923ZM22.6445 81V80.3232L23.3037 80.1914V77.0581L22.605 76.9263V76.2451H24.4111V80.1914L25.0659 80.3232V81H22.6445ZM23.2598 75.1685V74.1445H24.4111V75.1685H23.2598ZM27.1401 81.0923C26.6567 81.0923 26.2803 80.9678 26.0107 80.7188C25.7412 80.4697 25.6064 80.127 25.6064 79.6904C25.6064 79.2422 25.7881 78.8789 26.1514 78.6006C26.5176 78.3223 27.042 78.1831 27.7246 78.1831H28.4497V77.7832C28.4497 77.5312 28.3735 77.3306 28.2212 77.1812C28.0718 77.0317 27.8535 76.957 27.5664 76.957C27.4023 76.957 27.2573 76.9775 27.1313 77.0186C27.0054 77.0566 26.8926 77.1123 26.793 77.1855L26.6963 77.8271H25.8789L25.8701 76.6538C26.1016 76.4985 26.3608 76.377 26.6479 76.2891C26.938 76.2012 27.2588 76.1572 27.6104 76.1572C28.2139 76.1572 28.6885 76.2993 29.0342 76.5835C29.3828 76.8677 29.5571 77.272 29.5571 77.7964V79.8926C29.5571 79.957 29.5571 80.02 29.5571 80.0815C29.5601 80.1401 29.5645 80.2002 29.5703 80.2617L30.0537 80.3232V81H28.6079C28.5786 80.8975 28.5508 80.7979 28.5244 80.7012C28.501 80.6045 28.4834 80.5078 28.4717 80.4111C28.3135 80.6104 28.1216 80.7744 27.896 80.9033C27.6704 81.0293 27.4185 81.0923 27.1401 81.0923ZM27.3906 80.2354C27.6162 80.2354 27.8242 80.1841 28.0146 80.0815C28.208 79.9761 28.353 79.8442 28.4497 79.686V78.8906H27.7114C27.3804 78.8906 27.1299 78.9683 26.96 79.1235C26.793 79.2759 26.7095 79.4546 26.7095 79.6597C26.7095 80.0435 26.9365 80.2354 27.3906 80.2354ZM30.5459 81V80.3232L31.2095 80.1914V74.9575L30.5063 74.8257V74.1445H32.3169V80.1914L32.9761 80.3232V81H30.5459ZM35.7227 81V80.3232L36.417 80.1914V75.4146L35.7227 75.2827V74.6016H38.0034L39.8799 79.229H39.9062L41.7256 74.6016H44.0327V75.2827L43.334 75.4146V80.1914L44.0327 80.3232V81H41.5322V80.3232L42.2661 80.1914V78.7017L42.2749 75.9023L42.2529 75.8979L40.271 80.855H39.4668L37.4277 75.9243L37.4058 75.9287L37.4629 78.627V80.1914L38.2231 80.3232V81H35.7227ZM46.2036 81.0923C45.7202 81.0923 45.3438 80.9678 45.0742 80.7188C44.8047 80.4697 44.6699 80.127 44.6699 79.6904C44.6699 79.2422 44.8516 78.8789 45.2148 78.6006C45.5811 78.3223 46.1055 78.1831 46.7881 78.1831H47.5132V77.7832C47.5132 77.5312 47.437 77.3306 47.2847 77.1812C47.1353 77.0317 46.917 76.957 46.6299 76.957C46.4658 76.957 46.3208 76.9775 46.1948 77.0186C46.0688 77.0566 45.9561 77.1123 45.8564 77.1855L45.7598 77.8271H44.9424L44.9336 76.6538C45.165 76.4985 45.4243 76.377 45.7114 76.2891C46.0015 76.2012 46.3223 76.1572 46.6738 76.1572C47.2773 76.1572 47.752 76.2993 48.0977 76.5835C48.4463 76.8677 48.6206 77.272 48.6206 77.7964V79.8926C48.6206 79.957 48.6206 80.02 48.6206 80.0815C48.6235 80.1401 48.6279 80.2002 48.6338 80.2617L49.1172 80.3232V81H47.6714C47.6421 80.8975 47.6143 80.7979 47.5879 80.7012C47.5645 80.6045 47.5469 80.5078 47.5352 80.4111C47.377 80.6104 47.1851 80.7744 46.9595 80.9033C46.7339 81.0293 46.4819 81.0923 46.2036 81.0923ZM46.4541 80.2354C46.6797 80.2354 46.8877 80.1841 47.0781 80.0815C47.2715 79.9761 47.4165 79.8442 47.5132 79.686V78.8906H46.7749C46.4438 78.8906 46.1934 78.9683 46.0234 79.1235C45.8564 79.2759 45.7729 79.4546 45.7729 79.6597C45.7729 80.0435 46 80.2354 46.4541 80.2354ZM49.6401 81V80.3232L50.2993 80.1914V77.0581L49.605 76.9263V76.2451H51.3188L51.376 76.9351C51.5342 76.689 51.7305 76.4985 51.9648 76.3638C52.2021 76.2261 52.4702 76.1572 52.769 76.1572C53.2583 76.1572 53.6392 76.3081 53.9116 76.6099C54.1841 76.9116 54.3203 77.3804 54.3203 78.0161V80.1914L54.9795 80.3232V81H52.5933V80.3232L53.2129 80.1914V78.0249C53.2129 77.6646 53.1411 77.4097 52.9976 77.2603C52.854 77.1079 52.6401 77.0317 52.356 77.0317C52.145 77.0317 51.959 77.0801 51.7979 77.1768C51.6367 77.2705 51.5063 77.4023 51.4067 77.5723V80.1914L52.0088 80.3232V81H49.6401ZM57.0493 81.0923C56.5659 81.0923 56.1895 80.9678 55.9199 80.7188C55.6504 80.4697 55.5156 80.127 55.5156 79.6904C55.5156 79.2422 55.6973 78.8789 56.0605 78.6006C56.4268 78.3223 56.9512 78.1831 57.6338 78.1831H58.3589V77.7832C58.3589 77.5312 58.2827 77.3306 58.1304 77.1812C57.981 77.0317 57.7627 76.957 57.4756 76.957C57.3115 76.957 57.1665 76.9775 57.0405 77.0186C56.9146 77.0566 56.8018 77.1123 56.7021 77.1855L56.6055 77.8271H55.7881L55.7793 76.6538C56.0107 76.4985 56.27 76.377 56.5571 76.2891C56.8472 76.2012 57.168 76.1572 57.5195 76.1572C58.123 76.1572 58.5977 76.2993 58.9434 76.5835C59.292 76.8677 59.4663 77.272 59.4663 77.7964V79.8926C59.4663 79.957 59.4663 80.02 59.4663 80.0815C59.4692 80.1401 59.4736 80.2002 59.4795 80.2617L59.9629 80.3232V81H58.5171C58.4878 80.8975 58.46 80.7979 58.4336 80.7012C58.4102 80.6045 58.3926 80.5078 58.3809 80.4111C58.2227 80.6104 58.0308 80.7744 57.8052 80.9033C57.5796 81.0293 57.3276 81.0923 57.0493 81.0923ZM57.2998 80.2354C57.5254 80.2354 57.7334 80.1841 57.9238 80.0815C58.1172 79.9761 58.2622 79.8442 58.3589 79.686V78.8906H57.6206C57.2896 78.8906 57.0391 78.9683 56.8691 79.1235C56.7021 79.2759 56.6187 79.4546 56.6187 79.6597C56.6187 80.0435 56.8457 80.2354 57.2998 80.2354ZM62.6084 82.9204C62.374 82.9204 62.1133 82.8882 61.8262 82.8237C61.542 82.7622 61.2915 82.6758 61.0747 82.5645L61.3032 81.7515C61.4907 81.8394 61.6973 81.9097 61.9229 81.9624C62.1484 82.0151 62.3623 82.0415 62.5645 82.0415C62.9277 82.0415 63.1929 81.9404 63.3599 81.7383C63.5298 81.5391 63.6147 81.2563 63.6147 80.8901V80.5166C63.313 80.9004 62.9072 81.0923 62.3975 81.0923C62.0078 81.0923 61.6738 80.9956 61.3955 80.8022C61.1172 80.6089 60.9033 80.3379 60.7539 79.9893C60.6074 79.6406 60.5342 79.2363 60.5342 78.7764V78.6841C60.5342 78.1802 60.6074 77.7393 60.7539 77.3613C60.9033 76.9805 61.1157 76.6846 61.3911 76.4736C61.6665 76.2627 61.9976 76.1572 62.3843 76.1572C62.6743 76.1572 62.9263 76.2173 63.1401 76.3374C63.354 76.4546 63.5356 76.623 63.6851 76.8428L63.7686 76.2451H65.2935V76.9263L64.7222 77.0493V80.8945C64.7222 81.5156 64.5361 82.0078 64.1641 82.3711C63.792 82.7373 63.2734 82.9204 62.6084 82.9204ZM62.6963 80.2178C63.1094 80.2178 63.4155 80.0405 63.6147 79.686V77.5679C63.5181 77.4009 63.3936 77.2705 63.2412 77.1768C63.0889 77.0801 62.9087 77.0317 62.7007 77.0317C62.3374 77.0317 62.0693 77.1855 61.8965 77.4932C61.7266 77.7979 61.6416 78.1948 61.6416 78.6841V78.7764C61.6416 79.2158 61.7251 79.5659 61.8921 79.8267C62.062 80.0874 62.3301 80.2178 62.6963 80.2178ZM67.895 81.0923C67.4438 81.0923 67.0527 80.9927 66.7217 80.7935C66.3906 80.5913 66.1328 80.313 65.9482 79.9585C65.7666 79.604 65.6758 79.1982 65.6758 78.7412V78.5566C65.6758 78.0938 65.7651 77.6821 65.9438 77.3218C66.1255 76.9585 66.373 76.6743 66.6865 76.4692C67.0029 76.2612 67.3647 76.1572 67.772 76.1572C68.4136 76.1572 68.9014 76.3477 69.2354 76.7285C69.5723 77.1094 69.7407 77.6323 69.7407 78.2974V78.9302H66.8228L66.814 78.9521C66.8315 79.3271 66.9399 79.6362 67.1392 79.8794C67.3384 80.1196 67.6226 80.2397 67.9917 80.2397C68.2495 80.2397 68.4839 80.2046 68.6948 80.1343C68.9058 80.064 69.1021 79.9644 69.2837 79.8354L69.6265 80.5298C69.439 80.6909 69.2002 80.8257 68.9102 80.9341C68.623 81.0396 68.2847 81.0923 67.895 81.0923ZM66.8403 78.1523H68.6816V78.0381C68.6816 77.7275 68.6084 77.4756 68.4619 77.2822C68.3184 77.0889 68.0928 76.9922 67.7852 76.9922C67.5156 76.9922 67.2974 77.1006 67.1304 77.3174C66.9663 77.5342 66.8652 77.8052 66.8271 78.1304L66.8403 78.1523ZM70.3384 81V80.3232L71.002 80.1914V77.0581L70.3032 76.9263V76.2451H72.0171L72.0698 76.8691C72.2222 76.6436 72.4155 76.4692 72.6499 76.3462C72.8843 76.2202 73.1553 76.1572 73.4629 76.1572C73.7734 76.1572 74.0386 76.2275 74.2583 76.3682C74.481 76.5059 74.6494 76.7153 74.7637 76.9966C74.9102 76.7358 75.1021 76.5308 75.3394 76.3813C75.5796 76.2319 75.8608 76.1572 76.1831 76.1572C76.6577 76.1572 77.0327 76.3198 77.3081 76.645C77.5835 76.9702 77.7212 77.4624 77.7212 78.1216V80.1914L78.3848 80.3232V81H75.9897V80.3232L76.6138 80.1914V78.1128C76.6138 77.7144 76.5464 77.4346 76.4116 77.2734C76.2769 77.1123 76.0791 77.0317 75.8184 77.0317C75.5752 77.0317 75.3745 77.1094 75.2163 77.2646C75.061 77.417 74.96 77.6147 74.9131 77.8579V80.1914L75.5151 80.3232V81H73.208V80.3232L73.8101 80.1914V78.1128C73.8101 77.729 73.7412 77.4536 73.6035 77.2866C73.4658 77.1167 73.2666 77.0317 73.0059 77.0317C72.7891 77.0317 72.606 77.0757 72.4565 77.1636C72.3101 77.2515 72.1929 77.376 72.105 77.5371V80.1914L72.729 80.3232V81H70.3384ZM81.0786 81.0923C80.6274 81.0923 80.2363 80.9927 79.9053 80.7935C79.5742 80.5913 79.3164 80.313 79.1318 79.9585C78.9502 79.604 78.8594 79.1982 78.8594 78.7412V78.5566C78.8594 78.0938 78.9487 77.6821 79.1274 77.3218C79.3091 76.9585 79.5566 76.6743 79.8701 76.4692C80.1865 76.2612 80.5483 76.1572 80.9556 76.1572C81.5972 76.1572 82.085 76.3477 82.4189 76.7285C82.7559 77.1094 82.9243 77.6323 82.9243 78.2974V78.9302H80.0063L79.9976 78.9521C80.0151 79.3271 80.1235 79.6362 80.3228 79.8794C80.522 80.1196 80.8062 80.2397 81.1753 80.2397C81.4331 80.2397 81.6675 80.2046 81.8784 80.1343C82.0894 80.064 82.2856 79.9644 82.4673 79.8354L82.8101 80.5298C82.6226 80.6909 82.3838 80.8257 82.0938 80.9341C81.8066 81.0396 81.4683 81.0923 81.0786 81.0923ZM80.0239 78.1523H81.8652V78.0381C81.8652 77.7275 81.792 77.4756 81.6455 77.2822C81.502 77.0889 81.2764 76.9922 80.9688 76.9922C80.6992 76.9922 80.481 77.1006 80.314 77.3174C80.1499 77.5342 80.0488 77.8052 80.0107 78.1304L80.0239 78.1523ZM83.522 81V80.3232L84.1812 80.1914V77.0581L83.4868 76.9263V76.2451H85.2007L85.2578 76.9351C85.416 76.689 85.6123 76.4985 85.8467 76.3638C86.084 76.2261 86.3521 76.1572 86.6509 76.1572C87.1401 76.1572 87.521 76.3081 87.7935 76.6099C88.0659 76.9116 88.2021 77.3804 88.2021 78.0161V80.1914L88.8613 80.3232V81H86.4751V80.3232L87.0947 80.1914V78.0249C87.0947 77.6646 87.0229 77.4097 86.8794 77.2603C86.7358 77.1079 86.522 77.0317 86.2378 77.0317C86.0269 77.0317 85.8408 77.0801 85.6797 77.1768C85.5186 77.2705 85.3882 77.4023 85.2886 77.5723V80.1914L85.8906 80.3232V81H83.522ZM90.9839 81.0835C90.5796 81.0835 90.2646 80.9707 90.0391 80.7451C89.8135 80.5166 89.7007 80.1533 89.7007 79.6553V77.0361H89.0063V76.2451H89.7007V75.0894H90.8037V76.2451H91.7441V77.0361H90.8037V79.6553C90.8037 79.8574 90.8447 80.0039 90.9268 80.0947C91.0117 80.1855 91.126 80.231 91.2695 80.231C91.3516 80.231 91.4424 80.2251 91.542 80.2134C91.6445 80.1987 91.728 80.1841 91.7925 80.1694L91.9023 80.9473C91.7764 80.9854 91.6299 81.0176 91.4629 81.0439C91.2959 81.0703 91.1362 81.0835 90.9839 81.0835ZM97.1187 81.0923C96.6851 81.0923 96.2793 81.0381 95.9014 80.9297C95.5264 80.8213 95.1616 80.6411 94.8071 80.3892V78.917H95.6641L95.8047 79.8662C95.957 79.9805 96.1475 80.0713 96.376 80.1387C96.6074 80.2061 96.855 80.2397 97.1187 80.2397C97.5054 80.2397 97.8027 80.1577 98.0107 79.9937C98.2188 79.8296 98.3228 79.6099 98.3228 79.3345C98.3228 79.0796 98.2261 78.8672 98.0327 78.6973C97.8423 78.5244 97.5039 78.3721 97.0176 78.2402C96.2998 78.0469 95.7593 77.7979 95.396 77.4932C95.0327 77.1885 94.8511 76.7842 94.8511 76.2803C94.8511 75.9375 94.9434 75.6343 95.1279 75.3706C95.3154 75.1069 95.5747 74.8989 95.9058 74.7466C96.2368 74.5942 96.6191 74.5166 97.0527 74.5137C97.5273 74.5078 97.9463 74.5693 98.3096 74.6982C98.6758 74.8271 98.9849 74.9956 99.2368 75.2036V76.5791H98.3975L98.2393 75.6826C98.1191 75.5977 97.9624 75.5259 97.769 75.4673C97.5786 75.4058 97.353 75.375 97.0923 75.375C96.7583 75.375 96.4858 75.4556 96.2749 75.6167C96.064 75.7749 95.9585 75.9932 95.9585 76.2715C95.9585 76.5117 96.0566 76.7095 96.2529 76.8647C96.4521 77.02 96.8081 77.1709 97.3208 77.3174C98.0122 77.502 98.5366 77.7568 98.894 78.082C99.2544 78.4043 99.4346 78.8188 99.4346 79.3257C99.4346 79.6831 99.3379 79.9937 99.1445 80.2573C98.9541 80.521 98.6846 80.7261 98.3359 80.8726C97.9902 81.019 97.5845 81.0923 97.1187 81.0923ZM102.265 81.0923C101.808 81.0923 101.415 80.9897 101.087 80.7847C100.759 80.5767 100.507 80.291 100.331 79.9277C100.155 79.5645 100.067 79.1455 100.067 78.6709V78.5786C100.067 78.1069 100.155 77.6895 100.331 77.3262C100.507 76.9629 100.759 76.6772 101.087 76.4692C101.415 76.2612 101.805 76.1572 102.256 76.1572C102.713 76.1572 103.105 76.2612 103.434 76.4692C103.762 76.6743 104.014 76.96 104.189 77.3262C104.365 77.6895 104.453 78.1069 104.453 78.5786V78.6709C104.453 79.1484 104.365 79.5688 104.189 79.9321C104.014 80.2954 103.762 80.5796 103.434 80.7847C103.108 80.9897 102.719 81.0923 102.265 81.0923ZM102.265 80.2397C102.631 80.2397 102.903 80.0947 103.082 79.8047C103.261 79.5117 103.35 79.1338 103.35 78.6709V78.5786C103.35 78.1245 103.259 77.751 103.078 77.458C102.899 77.1621 102.625 77.0142 102.256 77.0142C101.89 77.0142 101.617 77.1621 101.438 77.458C101.263 77.751 101.175 78.1245 101.175 78.5786V78.6709C101.175 79.1338 101.263 79.5117 101.438 79.8047C101.617 80.0947 101.893 80.2397 102.265 80.2397ZM105.099 81V80.3232L105.763 80.1914V77.0361H105.038V76.2451H105.763V75.687C105.763 75.1655 105.906 74.7627 106.193 74.4785C106.483 74.1943 106.888 74.0522 107.406 74.0522C107.526 74.0522 107.655 74.0625 107.793 74.083C107.931 74.1006 108.057 74.124 108.171 74.1533L108.061 74.9839C108 74.9692 107.923 74.9575 107.833 74.9487C107.742 74.937 107.652 74.9312 107.564 74.9312C107.102 74.9312 106.87 75.1831 106.87 75.687V76.2451H107.929V77.0361H106.87V80.1914L107.696 80.3232V81H105.099ZM110.232 81.0835C109.828 81.0835 109.513 80.9707 109.287 80.7451C109.062 80.5166 108.949 80.1533 108.949 79.6553V77.0361H108.254V76.2451H108.949V75.0894H110.052V76.2451H110.992V77.0361H110.052V79.6553C110.052 79.8574 110.093 80.0039 110.175 80.0947C110.26 80.1855 110.374 80.231 110.518 80.231C110.6 80.231 110.69 80.2251 110.79 80.2134C110.893 80.1987 110.976 80.1841 111.041 80.1694L111.15 80.9473C111.024 80.9854 110.878 81.0176 110.711 81.0439C110.544 81.0703 110.384 81.0835 110.232 81.0835ZM113.277 81L112.108 77.0142L111.55 76.9263V76.2451H113.708V76.9263L113.172 77.0229L113.704 79.0884L113.818 79.5366H113.844L113.994 79.0884L114.991 76.2451H115.8L116.762 79.106L116.92 79.6113H116.947L117.101 79.106L117.676 77.0229L117.105 76.9263V76.2451H119.219V76.9263L118.674 77.0186L117.457 81H116.485L115.576 78.4336L115.391 77.8096H115.365L115.18 78.4336L114.249 81H113.277ZM121.245 81.0923C120.761 81.0923 120.385 80.9678 120.115 80.7188C119.846 80.4697 119.711 80.127 119.711 79.6904C119.711 79.2422 119.893 78.8789 120.256 78.6006C120.622 78.3223 121.146 78.1831 121.829 78.1831H122.554V77.7832C122.554 77.5312 122.478 77.3306 122.326 77.1812C122.176 77.0317 121.958 76.957 121.671 76.957C121.507 76.957 121.362 76.9775 121.236 77.0186C121.11 77.0566 120.997 77.1123 120.897 77.1855L120.801 77.8271H119.983L119.975 76.6538C120.206 76.4985 120.465 76.377 120.752 76.2891C121.042 76.2012 121.363 76.1572 121.715 76.1572C122.318 76.1572 122.793 76.2993 123.139 76.5835C123.487 76.8677 123.662 77.272 123.662 77.7964V79.8926C123.662 79.957 123.662 80.02 123.662 80.0815C123.665 80.1401 123.669 80.2002 123.675 80.2617L124.158 80.3232V81H122.712C122.683 80.8975 122.655 80.7979 122.629 80.7012C122.605 80.6045 122.588 80.5078 122.576 80.4111C122.418 80.6104 122.226 80.7744 122 80.9033C121.775 81.0293 121.523 81.0923 121.245 81.0923ZM121.495 80.2354C121.721 80.2354 121.929 80.1841 122.119 80.0815C122.312 79.9761 122.458 79.8442 122.554 79.686V78.8906H121.816C121.485 78.8906 121.234 78.9683 121.064 79.1235C120.897 79.2759 120.814 79.4546 120.814 79.6597C120.814 80.0435 121.041 80.2354 121.495 80.2354ZM124.765 81V80.3232L125.419 80.1914V77.0581L124.725 76.9263V76.2451H126.439L126.496 76.8428L126.505 76.9395C126.76 76.418 127.129 76.1572 127.612 76.1572C127.794 76.1572 127.957 76.1807 128.1 76.2275L127.973 77.2515L127.353 77.2163C127.151 77.2046 126.984 77.2441 126.852 77.335C126.72 77.4258 126.612 77.5518 126.527 77.7129V80.1914L127.186 80.3232V81H124.765ZM130.693 81.0923C130.242 81.0923 129.851 80.9927 129.52 80.7935C129.188 80.5913 128.931 80.313 128.746 79.9585C128.564 79.604 128.474 79.1982 128.474 78.7412V78.5566C128.474 78.0938 128.563 77.6821 128.742 77.3218C128.923 76.9585 129.171 76.6743 129.484 76.4692C129.801 76.2612 130.163 76.1572 130.57 76.1572C131.211 76.1572 131.699 76.3477 132.033 76.7285C132.37 77.1094 132.539 77.6323 132.539 78.2974V78.9302H129.621L129.612 78.9521C129.629 79.3271 129.738 79.6362 129.937 79.8794C130.136 80.1196 130.42 80.2397 130.79 80.2397C131.047 80.2397 131.282 80.2046 131.493 80.1343C131.704 80.064 131.9 79.9644 132.082 79.8354L132.424 80.5298C132.237 80.6909 131.998 80.8257 131.708 80.9341C131.421 81.0396 131.083 81.0923 130.693 81.0923ZM129.638 78.1523H131.479V78.0381C131.479 77.7275 131.406 77.4756 131.26 77.2822C131.116 77.0889 130.891 76.9922 130.583 76.9922C130.313 76.9922 130.095 77.1006 129.928 77.3174C129.764 77.5342 129.663 77.8052 129.625 78.1304L129.638 78.1523Z" fill="#7371FF"/>
<ellipse rx="1.8345" ry="1.82832" transform="matrix(1 0 0 -1 130.241 49.5002)" fill="#7371FF"/>
<ellipse rx="1.8345" ry="1.82832" transform="matrix(1 0 0 -1 9.79226 49.5002)" fill="#7371FF"/>
<path d="M39.0339 54.3939V52.5892L40.8971 52.2376V39.4993L39.0339 39.1478V37.3314H46.9206C48.8424 37.3314 50.3346 37.7689 51.3971 38.6439C52.4596 39.511 52.9909 40.722 52.9909 42.2767C52.9909 43.347 52.7174 44.2728 52.1706 45.054C51.6315 45.8274 50.8893 46.4017 49.944 46.7767L52.4049 52.2845L53.7409 52.5657V54.3939H50.1315L47.1784 47.2571L43.8503 47.2923V52.2376L45.7135 52.5892V54.3939H39.0339ZM43.8503 44.9954H46.7917C47.901 44.9954 48.7214 44.7728 49.2526 44.3274C49.7839 43.8743 50.0495 43.2181 50.0495 42.3587C50.0495 41.5228 49.7878 40.8587 49.2643 40.3665C48.7487 39.8665 47.9674 39.6165 46.9206 39.6165H43.8503V44.9954ZM55.4167 54.3939V52.5892L57.2799 52.2376V39.4993L55.4167 39.1478V37.3314H63.4206C64.6862 37.3314 65.7721 37.554 66.6784 37.9993C67.5924 38.4446 68.2917 39.0657 68.776 39.8626C69.2682 40.6595 69.5143 41.5853 69.5143 42.6399C69.5143 44.2337 68.9714 45.5149 67.8854 46.4837C66.8073 47.4446 65.319 47.9251 63.4206 47.9251H60.2331V52.2376L62.0964 52.5892V54.3939H55.4167ZM60.2331 45.6399H63.4206C64.4596 45.6399 65.2409 45.3587 65.7643 44.7962C66.2956 44.2337 66.5612 43.5228 66.5612 42.6634C66.5612 41.7884 66.2956 41.0618 65.7643 40.4837C65.2409 39.9056 64.4596 39.6165 63.4206 39.6165H60.2331V45.6399ZM70.8151 54.3939V52.5892L72.6784 52.2376V39.4993L70.8151 39.1478V37.3314H83.8112V41.7259H81.5143L81.3151 39.6048H75.6315V44.4329H81.6198V46.7181H75.6315V52.1439H81.6315L81.8307 49.9759H84.1042V54.3939H70.8151ZM86.1432 54.3939V52.5892L88.0065 52.2376V39.4993L86.1432 39.1478V37.3314H94.0299C95.9518 37.3314 97.444 37.7689 98.5065 38.6439C99.569 39.511 100.1 40.722 100.1 42.2767C100.1 43.347 99.8268 44.2728 99.2799 45.054C98.7409 45.8274 97.9987 46.4017 97.0534 46.7767L99.5143 52.2845L100.85 52.5657V54.3939H97.2409L94.2878 47.2571L90.9596 47.2923V52.2376L92.8229 52.5892V54.3939H86.1432ZM90.9596 44.9954H93.901C95.0104 44.9954 95.8307 44.7728 96.362 44.3274C96.8932 43.8743 97.1589 43.2181 97.1589 42.3587C97.1589 41.5228 96.8971 40.8587 96.3737 40.3665C95.8581 39.8665 95.0768 39.6165 94.0299 39.6165H90.9596V44.9954Z" fill="#FF0042"/>
</svg>
